<?xml version="1.0" standalone="no"?><!DOCTYPE svg PUBLIC "-//W3C//DTD SVG 1.1//EN" "http://www.w3.org/Graphics/SVG/1.1/DTD/svg11.dtd"><svg t="1530875342161" class="icon" style="" viewBox="0 0 1024 1024" version="1.1" xmlns="http://www.w3.org/2000/svg" p-id="1150" xmlns:xlink="http://www.w3.org/1999/xlink" width="200" height="200"><defs><style type="text/css"></style></defs><path d="M800.64433333 294.05852992c-52.196-43.827-91.887-64.321-117.774-73.905 33.505-40.633 94.481-120.34 87.012-153.668-2.062-9.23-8.22-16.493-16.89-19.934-7.387-2.908-14.473-4.315-21.654-4.315-12.521 0-22.432 4.341-31.184 8.178-8.206 3.604-15.306 6.718-25.628 6.895-9.175 0-13.394-3.55-22.897-12.302-8.479-7.81-19.019-17.531-35.922-23.839-11.168-4.233-21.327-6.281-31.075-6.281-24.317 0-41.097 12.834-55.746 26.801-4.683 4.546-8.356 7.674-11.1 9.803-6.636-4.546-14.746-10.69-19.866-16.398-10.909-12.37-29.75-19.757-50.395-19.757-14.295 0-27.648 3.632-38.735 10.581-10.758 6.854-18.404 13.121-24.548 18.159-9.653 7.905-13.913 11.182-22.391 12.957-0.41 0.082-1.12 0.177-2.212 0.177-6.09 0-15.319-2.908-24.262-5.734-12.111-3.823-24.63-7.755-37.37-7.755-11.619 0-21.641 3.373-29.764 10.007-5.489 4.465-8.915 11.087-9.653 18.637-2.867 29.395 46.777 98.017 86.876 148.125-25.136 9.571-63.584 29.614-111.917 71.53-56.838 49.385-185.043 186.067-148.111 387.809 28.563 156.208 172.346 313.822 429.165 313.822 231.37 0 401.436-120.627 433.261-307.309 26.965-158.119-21.19-286.433-147.223-392.288zM909.07833333 679.72352992c-22.624 132.751-138.131 274.582-394.473 274.582-234.155 0-364.831-141.408-390.458-281.559-33.286-181.835 83.462-306.067 135.182-351.027 74.78-64.826 121.884-70.67 122.101-70.697l37.561-3.195-24.112-28.986c-41.014-49.329-85.115-110.756-95.068-135.714 6.54 0.464 15.251 3.209 23.716 5.885 15.223 4.806 31.935 9.517 46.325 6.54 18.295-3.823 28.508-12.192 39.308-21.04 5.899-4.819 11.974-9.817 20.644-15.332 4.614-2.908 10.909-4.492 17.709-4.492 10.499 0 18.528 3.769 20.998 6.554 13.762 15.346 36.181 28.713 38.693 30.188l5.707 3.345 6.567-0.779c9.079-1.078 21.45-9.175 36.687-23.948 12.397-11.824 19.565-15.81 28.467-15.81 4.833 0 10.595 1.257 17.217 3.769 9.776 3.632 15.961 9.339 23.129 15.934 10.977 10.117 24.644 22.719 50.763 22.705 0.014 0 0.028 0 0.041 0 17.667-0.327 30.146-5.803 40.169-10.199 6.076-2.662 10.035-4.341 13.599-4.765-11.714 31.977-77.81 116.395-96.433 136.274l-28.317 30.652 41.902 2.458c0.45 0.028 45.63 3.427 128.642 73.127 114.401 96.092 158.146 212.378 133.734 355.533z" p-id="1151"></path><path d="M670.93833333 409.08752992l-153.969 150.842-153.982-150.842c-7.318-7.973-19.825-8.519-27.798-1.201s-8.519 19.825-1.201 27.798l130.922 128.259h-116.244v39.349h148.63v41.466h-96.174v39.349h96.174v117.814h39.349v-117.814h96.174v-39.349h-96.174v-41.466h148.63v-39.349h-116.244l130.922-128.259c7.318-7.973 6.772-20.48-1.201-27.798-7.987-7.305-20.494-6.772-27.812 1.201z" p-id="1152"></path></svg>