<?xml version="1.0" standalone="no"?><!DOCTYPE svg PUBLIC "-//W3C//DTD SVG 1.1//EN" "http://www.w3.org/Graphics/SVG/1.1/DTD/svg11.dtd"><svg t="1530875332804" class="icon" style="" viewBox="0 0 1024 1024" version="1.1" xmlns="http://www.w3.org/2000/svg" p-id="902" xmlns:xlink="http://www.w3.org/1999/xlink" width="200" height="200"><defs><style type="text/css"></style></defs><path d="M512.512 954.624c244.224 0 442.112-197.888 442.112-442.112C954.624 268.288 756.736 70.4 512.512 70.4 268.288 70.4 70.4 268.288 70.4 512.512 70.4 756.736 268.288 954.624 512.512 954.624L512.512 954.624zM228.864 228.864c75.776-75.776 176.512-117.504 283.648-117.504 84.736 0 165.376 26.112 232.96 74.496l-80.64 105.472c-43.264-29.824-95.744-47.36-152.32-47.36-148.224 0-268.544 120.192-268.544 268.544 0 146.176 116.736 265.088 262.144 268.416 10.112 27.264 36.352 46.592 67.072 46.592 39.552 0 71.552-32 71.552-71.552 0-3.2-0.256-6.272-0.64-9.344 81.664-46.08 136.832-133.632 136.832-233.984 0-82.304-36.992-155.904-95.36-205.184l80.512-105.472c10.368 8.448 20.352 17.536 29.952 27.136 75.776 75.776 117.504 176.512 117.504 283.648 0 107.136-41.728 207.872-117.504 283.648-75.776 75.776-176.512 117.504-283.648 117.504-107.136 0-207.872-41.728-283.648-117.504-75.776-75.776-117.504-176.512-117.504-283.648C111.488 405.376 153.088 304.64 228.864 228.864L228.864 228.864zM528.64 469.888c-4.992-1.92-10.368-2.944-16.128-2.944-25.216 0-45.568 20.352-45.568 45.568 0 25.216 20.352 45.568 45.568 45.568 25.216 0 45.568-20.352 45.568-45.568 0-9.984-3.2-19.2-8.704-26.752l115.712-151.552c4.608 3.968 8.96 8.064 13.312 12.288 44.288 44.288 68.736 103.296 68.736 166.016 0 62.72-24.448 121.6-68.736 166.016-14.208 14.208-29.824 26.368-46.72 36.224-12.928-18.432-34.304-30.464-58.624-30.464-36.48 0-66.688 27.392-71.04 62.72-58.88-2.56-113.792-26.624-155.648-68.48-44.288-44.288-68.736-103.296-68.736-166.016 0-62.72 24.448-121.6 68.736-166.016 44.288-44.288 103.296-68.736 166.016-68.736 47.744 0 93.312 14.208 131.84 40.448L528.64 469.888 528.64 469.888zM528.64 469.888" fill="#515151" p-id="903"></path></svg>