<?xml version="1.0" standalone="no"?><!DOCTYPE svg PUBLIC "-//W3C//DTD SVG 1.1//EN" "http://www.w3.org/Graphics/SVG/1.1/DTD/svg11.dtd"><svg t="1530875337543" class="icon" style="" viewBox="0 0 1024 1024" version="1.1" xmlns="http://www.w3.org/2000/svg" p-id="1026" xmlns:xlink="http://www.w3.org/1999/xlink" width="200" height="200"><defs><style type="text/css"></style></defs><path d="M609.93903333 767.064186c0-20.809955-15.589047-64.114227-64.11218-64.114227l-64.176648 0c-42.136679 0-64.113203 30.491455-64.113203 64.114227 0 227.962945 0 192.021362 0 192.021362L269.62423033 959.085548c-61.732993 0-109.590977-52.819996-109.590977-106.853633L160.03325333 553.854247 88.86435333 553.854247c-30.701233 0-45.558615-21.351284-51.570539-34.876322-2.379187-5.425569-12.542664-34.455743 23.435759-71.751161L434.61086533 95.495958c19.700691-20.390399 46.079478-31.638581 74.275657-31.638581 28.194132 0 54.575989 11.248182 74.275657 31.659047l383.081839 351.483166c0.064468 0.083911 0.148379 0.165776 0.230244 0.229221 35.960003 37.315884 25.796526 66.303079 23.418362 71.751161-6.011924 13.525038-20.828374 34.875299-51.570539 34.875299L866.94443133 553.85527l0 298.379715c0 54.031591-49.900503 106.853633-111.653963 106.853633l-145.350412 0C609.93903333 959.085548 609.93903333 958.564685 609.93903333 767.064186zM567.19655633 660.208507c53.532217 0 86.097914 31.992645 86.097914 106.85568l0 149.282978 85.421508 0c41.949414 0 85.48393-28.488845 85.48393-64.11218L824.19990833 511.109724l105.286951 0.088004c6.758937 0 10.79281-3.50994 13.08911-8.665357 2.292206-5.154393-1.608637-17.697057-13.151531-30.867008L559.25672333 135.022183c-12.855796-13.376659-32.56672-24.335245-49.430806-24.335245l-0.917906 0c-17.197684 0-40.738843 13.301957-53.447283 26.491351L98.82316933 471.666386c-11.039427 11.647271-14.713097 25.02393-13.147438 30.867008 1.562589 5.844102 3.547803 8.577353 10.350742 8.577353l106.749256 0L202.77572933 852.232938c0 35.625382 43.535539 64.11218 85.48393 64.11218l86.533842 0L374.79350133 767.064186c0-76.991512 31.953759-106.857726 85.48393-106.857726l106.917078 0L567.19451033 660.208507z" fill="#333333" p-id="1027"></path></svg>